<svg t="1750929077690" class="icon" viewBox="0 0 1024 1024" version="1.1" xmlns="http://www.w3.org/2000/svg" p-id="4254" width="200" height="200"><path d="M225.92 353.92a42.666667 42.666667 0 1 0 60.16 0 42.666667 42.666667 0 0 0-60.16 0zM396.586667 353.92a42.666667 42.666667 0 1 0 60.16 0 42.666667 42.666667 0 0 0-60.16 0zM567.253333 353.92a42.666667 42.666667 0 1 0 60.16 0 42.666667 42.666667 0 0 0-60.16 0zM737.92 353.92a42.666667 42.666667 0 1 0 60.16 0 42.666667 42.666667 0 0 0-60.16 0zM225.92 503.253333a42.666667 42.666667 0 1 0 60.16 0 42.666667 42.666667 0 0 0-60.16 0zM396.586667 503.253333a42.666667 42.666667 0 1 0 60.16 0 42.666667 42.666667 0 0 0-60.16 0zM567.253333 503.253333a42.666667 42.666667 0 1 0 60.16 0 42.666667 42.666667 0 0 0-60.16 0zM737.92 503.253333a42.666667 42.666667 0 1 0 60.16 0 42.666667 42.666667 0 0 0-60.16 0z" fill="#111111" p-id="4255"></path><path d="M512 0a512 512 0 1 0 512 512A512 512 0 0 0 512 0z m0 938.666667a426.666667 426.666667 0 1 1 426.666667-426.666667 426.666667 426.666667 0 0 1-426.666667 426.666667z" fill="#111111" p-id="4256"></path><path d="M298.666667 661.333333m42.666666 0l341.333334 0q42.666667 0 42.666666 42.666667l0 0q0 42.666667-42.666666 42.666667l-341.333334 0q-42.666667 0-42.666666-42.666667l0 0q0-42.666667 42.666666-42.666667Z" fill="#111111" p-id="4257"></path></svg>